<svg xmlns="http://www.w3.org/2000/svg" xmlns:xlink="http://www.w3.org/1999/xlink" width="500" zoomAndPan="magnify" viewBox="0 0 375 374.999991" height="500" preserveAspectRatio="xMidYMid meet" version="1.0"><defs><g/></defs><g fill="#3b3937" fill-opacity="1"><g transform="translate(85.832994, 285.427775)"><g><path d="M 77.875 0 L 20.34375 -163.78125 C 18.5 -168.800781 16.238281 -172.234375 13.5625 -174.078125 C 10.882812 -175.921875 7.367188 -176.84375 3.015625 -176.84375 L 0 -176.84375 L 0 -179.34375 L 72.84375 -179.34375 L 72.84375 -176.84375 L 64.296875 -176.84375 C 59.773438 -176.84375 56.300781 -176.171875 53.875 -174.828125 C 51.445312 -173.484375 50.234375 -171.054688 50.234375 -167.546875 C 50.234375 -164.523438 51.070312 -160.671875 52.75 -155.984375 L 83.390625 -66.8125 C 89.253906 -50.070312 93.859375 -35.085938 97.203125 -21.859375 C 99.046875 -28.046875 101.140625 -34.90625 103.484375 -42.4375 C 105.828125 -49.976562 108.085938 -57.097656 110.265625 -63.796875 L 139.15625 -154.234375 C 141 -159.421875 141.921875 -163.519531 141.921875 -166.53125 C 141.921875 -170.382812 140.625 -173.066406 138.03125 -174.578125 C 135.4375 -176.085938 131.289062 -176.84375 125.59375 -176.84375 L 110.265625 -176.84375 L 110.265625 -179.34375 L 171.0625 -179.34375 L 171.0625 -176.84375 L 162.515625 -176.84375 C 157.660156 -176.84375 153.804688 -175.457031 150.953125 -172.6875 C 148.109375 -169.925781 145.597656 -164.945312 143.421875 -157.75 L 92.4375 0 Z M 77.875 0 "/></g></g></g><g fill="#3b3937" fill-opacity="1"><g transform="translate(66.457574, 283.384112)"><g><path d="M 1.886719 -2.550781 L 3.152344 -5.742188 L 4.40625 -2.550781 Z M 6.191406 0 L 3.152344 -7.414062 L 0.101562 0 L 0.878906 0 L 1.621094 -1.886719 L 4.671875 -1.886719 L 5.417969 0 Z M 6.191406 0 "/></g></g></g><g fill="#3b3937" fill-opacity="1"><g transform="translate(80.585103, 283.384112)"><g><path d="M 1.480469 -0.714844 L 1.480469 -6.9375 L 0.765625 -6.9375 L 0.765625 0 L 3.957031 0 L 3.957031 -0.714844 Z M 1.480469 -0.714844 "/></g></g></g><g fill="#3b3937" fill-opacity="1"><g transform="translate(92.581822, 283.384112)"><g><path d="M 5.292969 -1.929688 C 5.292969 -2.417969 5.171875 -2.835938 4.9375 -3.160156 C 4.691406 -3.488281 4.367188 -3.710938 3.96875 -3.824219 C 4.203125 -3.925781 4.40625 -4.109375 4.558594 -4.386719 C 4.628906 -4.507812 4.683594 -4.628906 4.722656 -4.761719 C 4.761719 -4.894531 4.785156 -5.078125 4.785156 -5.3125 C 4.785156 -5.539062 4.722656 -5.773438 4.621094 -5.996094 C 4.316406 -6.621094 3.652344 -6.9375 2.640625 -6.9375 L 0.765625 -6.9375 L 0.765625 0 L 2.886719 0 C 3.589844 0 4.152344 -0.152344 4.578125 -0.480469 C 4.792969 -0.644531 4.96875 -0.855469 5.101562 -1.121094 C 5.222656 -1.378906 5.292969 -1.640625 5.292969 -1.929688 Z M 4.070312 -5.203125 C 4.070312 -4.824219 3.957031 -4.550781 3.734375 -4.367188 C 3.507812 -4.183594 3.214844 -4.089844 2.847656 -4.089844 L 1.480469 -4.089844 L 1.480469 -6.253906 L 2.640625 -6.253906 C 3.589844 -6.253906 4.070312 -5.894531 4.070312 -5.203125 Z M 4.578125 -2.070312 C 4.578125 -1.652344 4.4375 -1.316406 4.152344 -1.0625 C 3.875 -0.804688 3.519531 -0.683594 3.089844 -0.683594 L 1.480469 -0.683594 L 1.480469 -3.375 L 3.203125 -3.375 C 3.558594 -3.375 3.875 -3.253906 4.152344 -3.007812 C 4.273438 -2.898438 4.375 -2.765625 4.457031 -2.609375 C 4.539062 -2.449219 4.578125 -2.273438 4.578125 -2.070312 Z M 4.578125 -2.070312 "/></g></g></g><g fill="#3b3937" fill-opacity="1"><g transform="translate(105.914122, 283.384112)"><g><path d="M 4.886719 0 L 4.886719 -0.664062 L 1.480469 -0.664062 L 1.480469 -3.132812 L 4.785156 -3.132812 L 4.785156 -3.804688 L 1.480469 -3.804688 L 1.480469 -6.273438 L 4.886719 -6.273438 L 4.886719 -6.9375 L 0.765625 -6.9375 L 0.765625 0 Z M 4.886719 0 "/></g></g></g><g fill="#3b3937" fill-opacity="1"><g transform="translate(119.399353, 283.384112)"><g><path d="M 1.480469 -3.425781 L 1.480469 -6.253906 L 3.089844 -6.253906 C 3.507812 -6.253906 3.84375 -6.121094 4.101562 -5.855469 C 4.34375 -5.589844 4.476562 -5.261719 4.476562 -4.855469 C 4.476562 -4.445312 4.34375 -4.109375 4.078125 -3.835938 C 3.816406 -3.558594 3.488281 -3.425781 3.089844 -3.425781 Z M 5.191406 -4.84375 C 5.191406 -5.4375 4.96875 -5.945312 4.539062 -6.34375 C 4.121094 -6.730469 3.601562 -6.9375 2.988281 -6.9375 L 0.765625 -6.9375 L 0.765625 0 L 1.480469 0 L 1.480469 -2.742188 L 2.304688 -2.742188 L 4.34375 0 L 5.304688 0 L 3.160156 -2.742188 C 3.703125 -2.773438 4.160156 -2.96875 4.539062 -3.324219 C 4.96875 -3.722656 5.191406 -4.234375 5.191406 -4.84375 Z M 5.191406 -4.84375 "/></g></g></g><g fill="#3b3937" fill-opacity="1"><g transform="translate(132.782628, 283.384112)"><g><path d="M 0.203125 -6.292969 L 1.886719 -6.292969 L 1.886719 -0.0195312 L 2.601562 -0.0195312 L 2.601562 -6.292969 L 4.285156 -6.292969 L 4.285156 -6.957031 L 0.203125 -6.957031 Z M 0.203125 -6.292969 "/></g></g></g><g fill="#3b3937" fill-opacity="1"><g transform="translate(145.105597, 283.384112)"><g><path d="M 6.875 -3.488281 C 6.875 -2.691406 6.589844 -2.019531 6.039062 -1.46875 C 5.476562 -0.90625 4.804688 -0.632812 4.019531 -0.632812 C 3.234375 -0.632812 2.558594 -0.90625 2.007812 -1.46875 C 1.449219 -2.019531 1.171875 -2.691406 1.171875 -3.488281 C 1.171875 -4.261719 1.449219 -4.9375 2.007812 -5.496094 C 2.558594 -6.046875 3.234375 -6.335938 4.019531 -6.335938 C 4.804688 -6.335938 5.476562 -6.046875 6.039062 -5.496094 C 6.589844 -4.9375 6.875 -4.261719 6.875 -3.488281 Z M 7.589844 -3.488281 C 7.589844 -3.976562 7.488281 -4.4375 7.304688 -4.875 C 7.121094 -5.304688 6.863281 -5.679688 6.539062 -6.007812 C 6.210938 -6.324219 5.835938 -6.578125 5.40625 -6.761719 C 4.96875 -6.945312 4.507812 -7.046875 4.019531 -7.046875 C 3.527344 -7.046875 3.058594 -6.945312 2.632812 -6.761719 C 2.203125 -6.578125 1.824219 -6.324219 1.5 -6.007812 C 1.171875 -5.679688 0.917969 -5.304688 0.734375 -4.875 C 0.550781 -4.4375 0.460938 -3.976562 0.460938 -3.488281 C 0.460938 -3 0.550781 -2.53125 0.734375 -2.101562 C 0.917969 -1.664062 1.171875 -1.285156 1.5 -0.957031 C 1.824219 -0.632812 2.203125 -0.378906 2.632812 -0.195312 C 3.058594 -0.0117188 3.527344 0.0820312 4.019531 0.0820312 C 4.507812 0.0820312 4.96875 -0.0117188 5.40625 -0.195312 C 5.835938 -0.378906 6.210938 -0.632812 6.539062 -0.957031 C 6.863281 -1.285156 7.121094 -1.664062 7.304688 -2.101562 C 7.488281 -2.53125 7.589844 -3 7.589844 -3.488281 Z M 7.589844 -3.488281 "/></g></g></g><g fill="#3b3937" fill-opacity="1"><g transform="translate(160.986705, 283.384112)"><g/></g></g><g fill="#3b3937" fill-opacity="1"><g transform="translate(171.576471, 283.384112)"><g><path d="M 3.253906 0.417969 L 6.394531 -6.9375 L 5.621094 -6.9375 L 3.253906 -1.347656 L 0.878906 -6.9375 L 0.101562 -6.9375 Z M 3.253906 0.417969 "/></g></g></g><g fill="#3b3937" fill-opacity="1"><g transform="translate(185.907895, 283.384112)"><g><path d="M 3.253906 0.417969 L 6.394531 -6.9375 L 5.621094 -6.9375 L 3.253906 -1.347656 L 0.878906 -6.9375 L 0.101562 -6.9375 Z M 3.253906 0.417969 "/></g></g></g><g fill="#3b3937" fill-opacity="1"><g transform="translate(200.239319, 283.384112)"><g><path d="M 1.480469 0 L 1.480469 -6.9375 L 0.765625 -6.9375 L 0.765625 0 Z M 1.480469 0 "/></g></g></g><g fill="#3b3937" fill-opacity="1"><g transform="translate(210.319331, 283.384112)"><g><path d="M 1.480469 -0.714844 L 1.480469 -6.9375 L 0.765625 -6.9375 L 0.765625 0 L 3.957031 0 L 3.957031 -0.714844 Z M 1.480469 -0.714844 "/></g></g></g><g fill="#3b3937" fill-opacity="1"><g transform="translate(222.316046, 283.384112)"><g><path d="M 1.480469 -0.714844 L 1.480469 -6.9375 L 0.765625 -6.9375 L 0.765625 0 L 3.957031 0 L 3.957031 -0.714844 Z M 1.480469 -0.714844 "/></g></g></g><g fill="#3b3937" fill-opacity="1"><g transform="translate(234.312761, 283.384112)"><g><path d="M 1.886719 -2.550781 L 3.152344 -5.742188 L 4.40625 -2.550781 Z M 6.191406 0 L 3.152344 -7.414062 L 0.101562 0 L 0.878906 0 L 1.621094 -1.886719 L 4.671875 -1.886719 L 5.417969 0 Z M 6.191406 0 "/></g></g></g><g fill="#3b3937" fill-opacity="1"><g transform="translate(248.440285, 283.384112)"><g><path d="M 1.480469 -5.109375 L 5.375 0.429688 L 5.375 -6.9375 L 4.660156 -6.9375 L 4.660156 -1.835938 L 0.765625 -7.375 L 0.765625 0 L 1.480469 0 Z M 1.480469 -5.109375 "/></g></g></g><g fill="#3b3937" fill-opacity="1"><g transform="translate(262.414882, 283.384112)"><g><path d="M 5.785156 -2.296875 L 5.785156 -6.9375 L 5.070312 -6.9375 L 5.070312 -2.191406 C 5.070312 -1.90625 5.019531 -1.671875 4.917969 -1.480469 C 4.621094 -0.90625 4.050781 -0.621094 3.203125 -0.621094 C 2.652344 -0.621094 2.214844 -0.746094 1.886719 -0.988281 C 1.507812 -1.265625 1.324219 -1.664062 1.324219 -2.191406 L 1.324219 -6.9375 L 0.613281 -6.9375 L 0.613281 -2.296875 C 0.613281 -1.539062 0.855469 -0.949219 1.347656 -0.519531 C 1.804688 -0.113281 2.425781 0.09375 3.203125 0.09375 C 3.96875 0.09375 4.578125 -0.113281 5.050781 -0.519531 C 5.539062 -0.949219 5.785156 -1.539062 5.785156 -2.296875 Z M 5.785156 -2.296875 "/></g></g></g><g fill="#3b3937" fill-opacity="1"><g transform="translate(276.644373, 283.384112)"><g><path d="M 4.886719 0 L 4.886719 -0.664062 L 1.480469 -0.664062 L 1.480469 -3.132812 L 4.785156 -3.132812 L 4.785156 -3.804688 L 1.480469 -3.804688 L 1.480469 -6.273438 L 4.886719 -6.273438 L 4.886719 -6.9375 L 0.765625 -6.9375 L 0.765625 0 Z M 4.886719 0 "/></g></g></g><g fill="#3b3937" fill-opacity="1"><g transform="translate(290.129609, 283.384112)"><g><path d="M 3.253906 0.417969 L 6.394531 -6.9375 L 5.621094 -6.9375 L 3.253906 -1.347656 L 0.878906 -6.9375 L 0.101562 -6.9375 Z M 3.253906 0.417969 "/></g></g></g><g fill="#3b3937" fill-opacity="1"><g transform="translate(304.461044, 283.384112)"><g><path d="M 1.886719 -2.550781 L 3.152344 -5.742188 L 4.40625 -2.550781 Z M 6.191406 0 L 3.152344 -7.414062 L 0.101562 0 L 0.878906 0 L 1.621094 -1.886719 L 4.671875 -1.886719 L 5.417969 0 Z M 6.191406 0 "/></g></g></g><g fill="#3b3937" fill-opacity="1"><g transform="translate(272.847642, 90.591739)"><g><path d="M -77.875 0 L -20.34375 163.78125 C -18.5 168.800781 -16.238281 172.234375 -13.5625 174.078125 C -10.882812 175.921875 -7.367188 176.84375 -3.015625 176.84375 L 0 176.84375 L 0 179.34375 L -72.84375 179.34375 L -72.84375 176.84375 L -64.296875 176.84375 C -59.773438 176.84375 -56.300781 176.171875 -53.875 174.828125 C -51.445312 173.484375 -50.234375 171.054688 -50.234375 167.546875 C -50.234375 164.523438 -51.070312 160.671875 -52.75 155.984375 L -83.390625 66.8125 C -89.253906 50.070312 -93.859375 35.085938 -97.203125 21.859375 C -99.046875 28.046875 -101.140625 34.90625 -103.484375 42.4375 C -105.828125 49.976562 -108.085938 57.097656 -110.265625 63.796875 L -139.15625 154.234375 C -141 159.421875 -141.921875 163.519531 -141.921875 166.53125 C -141.921875 170.382812 -140.625 173.066406 -138.03125 174.578125 C -135.4375 176.085938 -131.289062 176.84375 -125.59375 176.84375 L -110.265625 176.84375 L -110.265625 179.34375 L -171.0625 179.34375 L -171.0625 176.84375 L -162.515625 176.84375 C -157.660156 176.84375 -153.804688 175.457031 -150.953125 172.6875 C -148.109375 169.925781 -145.597656 164.945312 -143.421875 157.75 L -92.4375 0 Z M -77.875 0 "/></g></g></g></svg>